# xmcd
#
# Track frame offsets: 
#        150
#        32533
#        46954
#        60629
#        73361
#        86754
#        103128
#        129902
#        145599
#        159613
#        184036
#
# Disc length: 2588 seconds
#
# Revision: 0
# Processed by: cddbd v1.5.2PL0 Copyright (c) Steve Scherf et al.
# Submitted via: ExactAudioCopy v1.0b1
#
DISCID=960a1a0b
DTITLE=David Allan Coe - Family Album
DYEAR=1978
DGENRE=Country
TTITLE0=Family Album
TTITLE1=Million Dollar Memories
TTITLE2=Divers Do It Deeper
TTITLE3=Guilty Footsteps
TTITLE4=Take This Job And Shove It
TTITLE5=Houston, Dallas Or San Antone
TTITLE6=I've Got To Have You
TTITLE7=Whole Lot Of Lonesome
TTITLE8=Bad Impressions
TTITLE9=Heavenly Father Holy Mother
TTITLE10=If I Could Climb The Walls Of This Bottle
EXTD=
EXTT0=
EXTT1=
EXTT2=
EXTT3=
EXTT4=
EXTT5=
EXTT6=
EXTT7=
EXTT8=
EXTT9=
EXTT10=
PLAYORDER=
